<?xml version="1.0" encoding="utf-8"?>
<!-- Generator: Adobe Illustrator 27.5.0, SVG Export Plug-In . SVG Version: 6.00 Build 0)  -->
<svg version="1.1" xmlns="http://www.w3.org/2000/svg" xmlns:xlink="http://www.w3.org/1999/xlink" x="0px" y="0px"
	 viewBox="0 0 1000 800" style="enable-background:new 0 0 1000 800;" xml:space="preserve">
<g id="Background">
	<rect x="0" y="0" style="fill:#FFFFFF;" width="1000" height="800"/>
</g>
<g id="Shadow">
	<g style="opacity:0.5;">
		<path style="fill:#EED5D5;" d="M456.999,571.03c-27.109,0.1-54.218,0.907-81.279,4.635c-10.203,1.406-20.193,4.497-30.419,5.744
			c-20.427,2.491-40.489,7.138-60.988,9.281c-16.508,1.726-33.085,2.745-49.545,4.935c-15.432,2.053-32.517,1.58-47.83-1.813
			c-11.337-2.511-22.725-3.925-33.872-7.958c-12.469-4.512-26.015-7.738-39.006-7.622c-18.526,0.165-36.567,0.185-54.296,8.152
			c-6.223,2.797-13.842,7.394-18.568,13.263c-10.819,13.436-12.283,46.961-1.481,60.896c18.194,23.453,57.026,32.656,82.528,33.09
			c27.946,0.476,55.094-2.093,83.081-3.604c26.006-1.404,51.947-3.401,77.995-3.331c53.202,0.144,106.411,0,159.517-4.401
			c49.894-4.135,99.913-2.716,149.917-2.716c51.276,0,102.206,0.499,153.113,8.939c22.181,3.678,44.778,4.965,67.069,7.541
			c19.964,2.308,39.149-0.045,59.034-2.178c16.697-1.791,33.285-7.102,48.454-16.081c12.008-7.107,33.414-29.186,37.096-46.151
			c10.323-47.559-145.485-46.416-169.408-46.309c-26.762,0.12-53.736,1.21-80.477-0.054c-11.248-0.531-22.331-3.254-33.31-6.238
			c-10.935-2.972-21.952-2.216-33.042-3.465c-46.243-5.209-92.59-4.448-138.981-4.448
			C487.207,571.138,472.103,570.975,456.999,571.03z"/>
	</g>
</g>
<g id="Object">
	<g>
		<g>
			<rect x="202.251" y="236.54" style="fill:#DDDAE8;" width="573.617" height="361.855"/>
		</g>
		<g>
			<rect x="202.251" y="208.335" style="fill:#292949;" width="573.617" height="21.711"/>
		</g>
		<g>
			<rect x="202.251" y="230.046" style="fill:#D67086;" width="573.617" height="28.5"/>
		</g>
		<g>
			<rect x="261.643" y="240.505" style="fill:#F3F3F3;" width="487.826" height="12.167"/>
		</g>
		<g>
			<g>
				<ellipse style="fill:#8CABEF;" cx="222.631" cy="218.29" rx="3.63" ry="3.572"/>
			</g>
			<g>
				<ellipse style="fill:#DDDAE8;" cx="233.262" cy="218.29" rx="3.63" ry="3.572"/>
			</g>
			<g>
				<ellipse style="fill:#D67086;" cx="243.894" cy="218.29" rx="3.63" ry="3.572"/>
			</g>
		</g>
		<g style="opacity:0.36;">
			<g>
				<polygon style="fill:#F3F3F3;" points="241.827,240.751 241.827,252.426 246.051,246.589 				"/>
			</g>
			<g>
				<polygon style="fill:#F3F3F3;" points="224.698,252.426 224.698,240.751 220.474,246.589 				"/>
			</g>
		</g>
	</g>
	<g>
		<g>
			<g>
				<polygon style="fill:#353A85;" points="95.028,640.342 94.19,646.858 106.384,655.05 113.738,649.372 108.06,642.018 
					95.866,633.826 				"/>
			</g>
			<g>
				<g>
					<polygon style="fill:#252526;" points="94.616,638.155 104.02,555.056 92.705,462.026 95.25,442.237 145.787,440.317 
						147.611,472.526 139.127,555.183 107.209,642.402 					"/>
				</g>
			</g>
			<g>
				<polygon style="fill:#3B3387;" points="150.531,348.372 175.951,355.296 205.35,407.39 191.424,420.284 171.825,397.074 				"/>
			</g>
			<g>
				<g>
					<polygon style="fill:#252526;" points="182.869,449.63 183.002,533.488 166.123,641.44 153.973,641.319 147.295,541.488 
						131.665,441.568 					"/>
				</g>
				<g>
					<polygon style="fill:#353A85;" points="153.992,646.443 167.065,653.143 173.7,646.64 167.196,640.005 154.057,639.874 					
						"/>
				</g>
			</g>
			<g>
				<g>
					<path style="fill:#3B3387;" d="M87.476,478.15c0.116-3.634,0.318-6.667,0.347-7.749c0.26-9.748,1.129-19.475,2.349-29.154
						c1.094-8.674,2.474-30.206,3.958-38.827c1.226-7.117,5.496-24.883,8.582-31.484c7.674-16.417,5.303-17.934,39.011-22.809
						c14.773-2.137,18.265,7.07,30.343,17.658c1.191,1.044,1.126,7.262,1.402,8.908c0.487,2.9,1.008,5.794,1.606,8.675
						c0.47,2.264,0.988,4.522,1.57,6.764l-0.001-0.001c0,0,10.139,46.142,16.844,55.942c6.705,9.8,20.558,23.5-2.614,31.865
						c-4.106,1.327-8.238,2.591-12.513,3.266c0,0-18.951-2.106-28.697-2.033c-8.976,0.067-17.989,0.975-26.813,2.497
						c-5.901,0.986-11.922,2.42-17.201,5.177c-5.036,2.63-8.671,6.5-13.78,9.224c-0.484,0.258-1.015,0.525-1.565,0.449
						C87.369,496.111,87.232,485.799,87.476,478.15z"/>
				</g>
			</g>
			<g>
				<g>
					<path style="fill:#E2B79A;" d="M141.762,352.757c-1.701,0.84-5.715,1.141-9.903-0.499c-0.844-0.33-1.413-1.144-1.402-2.05
						c0.033-2.544,0.238-5.085,0.612-7.601c-3.141-1.104-6.77-2.76-7.318-6.044c-0.172-1.034,0.006-2.091,0.185-3.125
						c0.738-4.272,1.476-8.544,2.215-12.815c0.255-1.477,0.527-2.998,1.33-4.264c1.41-2.221,4.146-3.193,6.738-3.643
						c6.615-1.148,13.823,0.285,18.952,4.617c1.365,1.153,2.599,2.539,3.201,4.222c0.928,2.594,0.234,5.455-0.466,8.12
						c-0.646,2.46-1.292,4.919-1.938,7.379c-0.743,2.829-1.815,6.045-4.541,7.106c-1.447,0.563-3.156,0.399-4.466,1.232
						C142.653,346.861,142.964,350.296,141.762,352.757z"/>
				</g>
				<g>
					<path style="fill:#292949;" d="M179.94,310.155c0.65-1.067,1.35-2.096,2.133-3.062c1.696-2.091,3.786-3.884,5.151-6.205
						c1.365-2.321,1.845-5.468,0.207-7.605c-1.057-1.38-2.772-2.069-4.439-2.56c-5.493-1.617-11.421-1.726-16.971-0.314
						c-5.285,1.345-10.016,3.573-15.336,1.586c-4.999-1.867-8.61-1.106-13.835,0.758c-5.654,2.017-13.244,2.493-18.362,5.341
						c-2.137,1.189-3.843,3.048-5.172,5.101c-4.605,7.113-4.631,16.921-0.063,24.057c1.025,1.601,2.251,3.065,3.54,4.462
						c2.667,2.893,5.858,6.466,9.527,7.538c0.087-3.283-2.903-13.633-0.382-16.323c4.001-4.269,13.046-2.78,18.009-1.729
						c5.413,1.147,10.239,4.98,15.606,5.799c3.862,0.589,8.791-1.305,12.075-3.301C175.682,321.235,177.569,314.049,179.94,310.155z
						"/>
				</g>
			</g>
			<g>
				<polygon style="fill:#3B3387;" points="113.738,354.437 92.705,372.866 69.242,422.174 98.878,457.43 103.976,437.714 				"/>
			</g>
		</g>
	</g>
	<g style="opacity:0.06;">
		<g>
			<g>
				<g>
					<rect x="314.773" y="322.826" style="fill:#A0A1A3;" width="353.683" height="96.886"/>
				</g>
			</g>
		</g>
	</g>
	<g>
		<g>
			<g>
				<g>
					<rect x="306.983" y="316.033" style="fill:#FFFFFF;" width="353.683" height="96.886"/>
				</g>
			</g>
		</g>
	</g>
	<g>
		<g style="opacity:0.14;">
			
				<rect x="194.834" y="376.094" transform="matrix(0.9964 -0.0851 0.0851 0.9964 -40.0729 26.1885)" style="fill:#B5B7B8;" width="184.634" height="214.098"/>
		</g>
		<g>
			
				<rect x="157.333" y="371.569" transform="matrix(0.9964 -0.0851 0.0851 0.9964 -39.7701 24.2344)" style="fill:#D67086;" width="214.098" height="214.098"/>
		</g>
		<g>
			<g>
				<g>
					
						<rect x="261.264" y="365.113" transform="matrix(0.6444 -0.7647 0.7647 0.6444 -273.3363 373.1639)" style="fill:#ECECEC;" width="6.553" height="230.694"/>
				</g>
				<g>
					
						<rect x="149.193" y="477.184" transform="matrix(0.6444 -0.7647 0.7647 0.6444 -273.3381 373.1725)" style="fill:#ECECEC;" width="230.695" height="6.552"/>
				</g>
			</g>
			<g>
				<path style="fill:#ECECEC;" d="M185.387,572.367l-14.753-172.745l172.745-14.754l14.754,172.745L185.387,572.367z
					 M177.719,405.593l13.639,159.688l159.688-13.639l-13.639-159.688L177.719,405.593z"/>
			</g>
		</g>
	</g>
	<g>
		<polygon style="fill:#E2B79A;" points="163.732,446.969 175.636,443.412 174.338,438.258 165.647,438.889 166.164,436.166 
			156.348,440.451 156.975,445.991 		"/>
	</g>
	<g>
		<g>
			<polygon style="fill:#292949;" points="406.127,635.442 398.611,633.316 386.515,651.639 398.611,651.639 405.895,647.924 			"/>
		</g>
		<g>
			<path style="fill:#7C9FDD;" d="M540.257,598.412c0,0,10.501,7.693,10.366,14.489c0,0,1.118,14.321-1.724,19.961l-15.798,14.389
				l-29.182-1.871l-9.421-41.355L540.257,598.412z"/>
		</g>
		<g>
			<path style="fill:#8CABEF;" d="M508.229,607.605c0,0,12.601-2.961,16.916,5.634l8.586,15.856l-15.129,20.151l-114.614-0.368
				l0.232-13.688l37.08-10.466c-3.258-2.19-5.982-5.656-7.62-9.181c-2.936-6.318-0.644-10.996,1.719-16.933
				c0.725-1.821,4.18-11.915,7.148-11.122C442.558,587.492,508.229,607.605,508.229,607.605z"/>
		</g>
		<g>
			<g>
				<g>
					<polygon style="fill:#A0675C;" points="591.594,492.969 600.613,487.004 598.232,483.038 591.151,485.755 590.895,483.357 
						583.799,489.402 585.718,493.859 					"/>
				</g>
			</g>
			<g>
				<g>
					<polygon style="fill:#3B3387;" points="513.285,477.209 541.135,502.523 585.515,486.549 588.871,495.588 536.426,532.786 
						501.066,504.463 					"/>
				</g>
			</g>
		</g>
		<g>
			<g>
				<g>
					<polygon style="fill:#A0675C;" points="417.628,417.397 416.302,406.665 420.864,405.898 423.399,413.047 425.389,411.683 
						425.404,421.005 420.769,422.442 					"/>
				</g>
			</g>
			<g>
				<g>
					<polygon style="fill:#3B3387;" points="480.488,466.684 443.15,461.961 426.457,417.846 417.406,421.168 423.206,485.204 
						467.71,493.68 					"/>
				</g>
			</g>
		</g>
		<g>
			<g>
				<g>
					<path style="fill:#3B3387;" d="M534.743,575.356c-7.909-22.02-9.436-45.363-12.281-68.477
						c-0.842-6.82-1.728-13.789-4.779-19.946c-3.503-7.07-9.032-10.682-15.396-12.546c-8.1-2.373-17.554-1.913-25.904-2.149
						c-7.915,0.009-13.941,29.96-21.537,44.631c-4.655,8.991-9.494,16.967-12.514,26.708c-2.898,9.348-5.665,18.855-7.213,28.534
						c-2.337,14.613-9.196,24.987-2.169,29.704c0.636,0.188,1.249,0.374,1.831,0.561c11.393,3.667,23.143,6.273,35.06,7.453
						c10.571,1.046,21.27,0.951,31.806-0.435c14.422-1.898,28.373-4.398,40.881-12.359
						C539.934,589.808,537.339,582.582,534.743,575.356z"/>
				</g>
			</g>
		</g>
		<g>
			<g>
				<path style="fill:#A0675C;" d="M471.795,450.241c4.061-13.745,23.752-19.127,28.88-3.473c1.541,4.704,2.54,9.715,1.755,14.603
					c-0.785,4.888-3.601,9.645-8.065,11.783c-0.026,0.012-0.051,0.022-0.077,0.035c0.218,1.255,0.436,2.509,0.654,3.764
					c0.047,0.27,0.089,0.568-0.056,0.799c-0.165,0.264-0.507,0.343-0.814,0.399c-1.497,0.273-2.995,0.547-4.492,0.821
					c-0.742,0.136-1.516,0.27-2.241,0.063c-1.588-0.452-2.304-2.315-2.426-3.962c-0.029-0.394-0.039-0.793-0.046-1.192
					C475.863,471.121,469.14,459.226,471.795,450.241z"/>
			</g>
			<g>
				<g>
					<path style="fill:#292949;" d="M495.216,426.233c3.616-0.659,6.825,2.764,10.238,4.505c2.839,1.448,6.015,1.753,8.948,2.935
						c2.933,1.182,5.861,3.752,6.03,7.083c2.88-1.62,6.002-3.287,9.305-2.762c3.303,0.526,6.479,4.345,5.276,7.619
						c-1.077,2.931-4.829,3.735-5.991,6.624c-1.84,4.569,3.758,11.39,0.191,14.497c-0.858,0.747-2.051,0.96-2.892,1.727
						c-1.045,0.953-1.339,2.542-1.772,3.96c-1.962,6.427-8.235,10.788-14.591,10.145c-3.995-1.716-7.257-5.422-8.805-9.737
						c-1.866-5.2,0.886-7.127,1.2-12.076c0.343-5.409-1.558-11.063-5.089-15.14c-2.298-2.653-5.536-4.899-8.886-5.108
						c-1.362-0.085-0.898,1.034-2.46,0.033c-0.671-0.43-1.621-2.106-1.834-2.917C487.643,434.562,490.458,427.1,495.216,426.233z"/>
				</g>
				<g>
					<path style="fill:#292949;" d="M456.143,434.505c-1.858,0.583-3.895,0.573-5.656,1.414c-2.644,1.264-2.391,4.042-3.071,6.486
						c-0.753,2.705-1.858,6.339-3.556,8.479c-1.224,1.542-2.977,2.456-4.49,3.664c-1.513,1.208-2.882,2.965-2.781,5.051
						c0.096,1.977,1.483,3.709,1.742,5.678c0.333,2.937-0.127,4.462,0.879,7.442c0.519,1.538,1.097,3.165,2.297,4.187
						c1.582,1.346,3.769,1.247,5.68,0.864c1.911-0.384,3.879-0.982,5.795-0.406c4.154,1.248,3.523,5.429,4.73,8.877
						c1.837,5.246,8.084,8.14,12.725,6.101c3.935-1.728,6.091-6.432,5.762-10.996c-0.165-2.285-1.145-4.387-1.286-6.675
						c-0.136-2.206,1.009-5.305-1.049-6.993c-0.502-0.411-1.134-0.616-1.588-1.088c-0.367-0.382-0.581-0.903-0.721-1.425
						c-0.486-1.812-0.149-3.815,0.882-5.248c0.741-1.03,1.825-1.799,2.259-3.027c0.498-1.406,0.015-3.016-0.127-4.547
						c-0.343-3.702,1.567-7.405,4.61-8.938c2.005-1.01,3.822-1.627,5.554-3.12c0.264-0.227,4.196-3.937,4.326-3.168
						c-0.226-1.34-1.05-2.492-1.881-3.546c-1.366-1.733-2.876-3.414-4.754-4.418c-6.072-3.244-6.099,4.756-10.917,3.861
						c-1.162-0.216-2.066-1.246-3.125-1.843c-2.001-1.129-4.397-0.624-6.374,0.335C460.031,432.465,458.236,433.848,456.143,434.505
						z"/>
				</g>
			</g>
		</g>
	</g>
	<g>
		<g style="opacity:0.09;">
			
				<rect x="632.169" y="205.368" transform="matrix(0.9984 0.056 -0.056 0.9984 15.0918 -39.1177)" style="fill:#A0A1A3;" width="145.906" height="88.403"/>
		</g>
		<g>
			<g>
				
					<rect x="639.869" y="163.428" transform="matrix(0.9984 0.056 -0.056 0.9984 13.8758 -41.5632)" style="fill:#474EBB;" width="216.516" height="126.472"/>
			</g>
			<g>
				<g>
					
						<rect x="670.567" y="190.801" transform="matrix(0.9984 0.056 -0.056 0.9984 12.0342 -41.8304)" style="fill:#FFFFFF;" width="162.798" height="5.771"/>
				</g>
				<g>
					
						<rect x="668.849" y="221.41" transform="matrix(0.9984 0.056 -0.056 0.9984 13.7466 -41.686)" style="fill:#FFFFFF;" width="162.798" height="5.771"/>
				</g>
				<g>
					
						<rect x="667.131" y="252.018" transform="matrix(0.9984 0.056 -0.056 0.9984 15.4589 -41.5417)" style="fill:#FFFFFF;" width="162.798" height="5.771"/>
				</g>
			</g>
		</g>
	</g>
	<g>
		<g id="XMLID_2337_">
			<g>
				<polygon style="fill:#252526;" points="724.457,646.907 725.182,653.608 712.503,661.76 705.077,655.783 711.054,648.357 
					723.732,640.205 				"/>
			</g>
			<g>
				<polygon style="fill:#252526;" points="694.037,645.279 694.762,651.981 682.084,660.133 674.657,654.156 680.634,646.729 
					693.312,638.577 				"/>
			</g>
			<g id="XMLID_2339_">
				<g id="XMLID_2348_">
					<g>
						<polygon style="fill:#252526;" points="748.285,517.299 734.771,577.331 726.464,648.014 710.95,646.563 704.644,474.967 
							746.185,475.721 						"/>
					</g>
				</g>
				<g id="XMLID_2346_">
					<g id="XMLID_2347_">
						<g>
							<polygon style="fill:#252526;" points="668.746,513.628 667.002,571.902 678.589,646.563 694.762,644.873 696.983,567.707 
								708.517,514.818 712.389,480.198 677.802,476.119 							"/>
						</g>
					</g>
				</g>
				<g id="XMLID_2345_">
					<g>
						<polygon style="fill:#8CABEF;" points="696.107,356.859 733.369,355.969 754.974,396.149 747.295,433.784 745.927,478.821 
							692.774,479.547 675.285,476.707 679.929,428.585 677.266,364.303 						"/>
					</g>
				</g>
				<g id="XMLID_2344_">
					<g>
						<polygon style="fill:#E1CFB5;" points="736.962,452.607 737.164,458.892 726.071,462.93 719.677,458.085 719.673,450.769 
							725.846,450.424 726.039,448.815 728.06,447.515 						"/>
					</g>
				</g>
				<g id="XMLID_2343_">
					<g>
						<polygon style="fill:#8CABEF;" points="734.605,358.74 775.873,406.215 777.889,427.009 737.183,459.143 729.88,448.575 
							756.206,420.467 730.703,395.501 						"/>
					</g>
				</g>
				<g id="XMLID_2342_">
					<g>
						<polygon style="fill:#8CABEF;" points="694.762,381.205 675.353,420.006 654.426,424.165 616.953,422.569 617.664,404.651 
							656.088,404.651 677.785,364.303 						"/>
					</g>
				</g>
				<g id="XMLID_2340_">
					<g id="XMLID_2341_">
						<g>
							<path style="fill:#EAC2A7;" d="M698.44,325.639c5.617-16.332,27.178-10.211,31.622,4.331
								c2.9,9.486-4.426,21.796-14.255,24.52c-0.043,0.373-0.076,0.722-0.077,1.018c-0.007,1.523-0.194,3.024-0.42,4.545
								c-0.084,0.567-8.686-1.086-9.645-1.274c-0.336-0.066-0.71-0.157-0.891-0.439c-0.347-0.54,0.217-2.131,0.28-2.731
								c0.074-0.708,0.149-1.417,0.223-2.125c-4.848-2.367-7.908-7.407-8.762-12.538C695.658,335.79,696.752,330.547,698.44,325.639
								z"/>
						</g>
					</g>
				</g>
			</g>
			<g id="XMLID_2338_">
				<g>
					<polygon style="fill:#ECECEC;" points="722.346,356.646 710.787,372.984 705.352,372.539 696.295,355.969 					"/>
				</g>
			</g>
			<g>
				<path style="fill:#292949;" d="M694.563,312.091c-0.028-0.271-0.056-0.542-0.084-0.813c-0.088-0.846-0.166-1.746,0.213-2.508
					c0.602-1.209,2.086-1.618,3.206-2.372c2.745-1.848,3.186-5.677,5.069-8.399c3.62-5.233,7.939-2.188,12.744-1.62
					c5.523,0.653,9.483-1.228,14.342,2.23c3.927,2.795,8.783,5.411,11.414,9.659c4.578,7.392,4.401,17.454-0.433,24.681
					c-1.084,1.621-2.373,3.097-3.724,4.505c-2.796,2.913-6.143,6.512-9.929,7.536c-0.022-3.369,3.259-13.926,0.727-16.74
					c-2.525-2.803-6.276-2.576-9.513-3.906c-2.992-1.229-5.368-4.725-8.527-5.334c-3.5-0.675-14.396,3.785-15.108-3.097
					C694.826,314.638,694.695,313.364,694.563,312.091z"/>
			</g>
		</g>
		<g>
			<g>
				<polygon style="fill:#3B3387;" points="704.723,471.179 734.862,443.231 649.792,416.187 616.953,444.402 				"/>
			</g>
			<g>
				<polygon style="fill:#5D66D3;" points="704.723,471.179 616.953,444.402 616.953,374.568 704.723,401.345 				"/>
			</g>
		</g>
	</g>
	<g>
		<g>
			<polygon style="fill:#E1CFB5;" points="780.385,299.996 769.362,292.29 770.93,285.263 782.102,289.115 787.495,292.629 
				787.495,296.527 			"/>
		</g>
		<g id="XMLID_2321_">
			<g id="XMLID_2324_">
				<g id="XMLID_2334_">
					<g id="XMLID_2336_">
						<g>
							<path style="fill:#323643;" d="M885.105,597.197c1.137-1.252,2.465-1.936,3.965-1.7c1.441,0.227,2.736,1.203,3.331,2.509
								c0.405,0.891,0.491,1.884,0.571,2.855c0.415,5.028,0.378,16.965-6.32,18.684c-2.814,0.722-5.143-1.278-5.894-3.805
								C879.625,611.932,881.302,601.385,885.105,597.197z"/>
						</g>
					</g>
					<g id="XMLID_2335_">
						<g>
							<path style="fill:#EAC2A7;" d="M882.723,521.348l0.351,30.667c-0.408,13.622,1.719,27.32,1.312,40.942
								c-0.094,3.132-0.91,6.437-0.121,9.541c0.772,3.037,3.24,3.574,5.773,2.036c3.394-2.06,2.847-6.872,3.412-10.383
								c1.553-9.646,3.374-19.248,4.996-28.882c0.795-4.724-0.844-11.343-0.487-16.123l4.954-25.701L882.723,521.348z"/>
						</g>
					</g>
				</g>
				<g id="XMLID_2333_">
					<g>
						<polygon style="fill:#BABCBE;" points="917.762,471.796 904.415,531.086 901.579,587.077 880.415,586.602 874.66,429.986 
							915.688,430.731 						"/>
					</g>
				</g>
				<g id="XMLID_2328_">
					<g id="XMLID_2330_">
						<g id="XMLID_2332_">
							<g>
								<path style="fill:#323643;" d="M854.833,596.083c1.187-1.186,2.54-1.792,4.024-1.467c1.426,0.312,2.676,1.365,3.212,2.708
									c0.366,0.915,0.409,1.914,0.447,2.891c0.199,5.056-0.349,17.001-7.097,18.326c-2.836,0.556-5.071-1.582-5.712-4.156
									C848.741,610.507,850.863,600.049,854.833,596.083z"/>
							</g>
						</g>
						<g id="XMLID_2331_">
							<g>
								<path style="fill:#EAC2A7;" d="M865.988,525.653l-1.796,30.618c-0.147,8.509-1.281,16.952-2.161,25.403
									c-0.818,7.85,0.455,16.027-3.647,23.167c-1.286,2.239-3.887,3.729-5.704,1.009c-1.401-2.096-0.569-5.593-0.837-7.971
									c-1.096-9.708-2.463-19.384-3.629-29.083c-0.572-4.755,1.378-11.291,1.247-16.083l-3.737-25.904L865.988,525.653z"/>
							</g>
						</g>
					</g>
					<g id="XMLID_2329_">
						<g>
							<polygon style="fill:#BABCBE;" points="839.205,468.17 837.483,525.724 846.515,583.926 868.044,584.57 867.094,521.581 
								878.486,469.345 882.31,435.153 848.15,431.124 							"/>
						</g>
					</g>
				</g>
				<g id="XMLID_2327_">
					<g>
						<polygon style="fill:#353A85;" points="866.229,313.336 903.031,312.458 924.369,352.142 916.784,389.311 915.434,433.793 
							862.937,434.509 845.664,431.705 850.25,384.177 847.848,326.182 						"/>
					</g>
				</g>
				<g id="XMLID_2326_">
					<g>
						<polygon style="fill:#353A85;" points="904.251,315.194 934.126,360.697 929.636,386.046 883.367,418.097 874.66,410.485 
							905.593,371.383 904.393,346.672 						"/>
					</g>
				</g>
				<g id="XMLID_2325_">
					<g>
						<polygon style="fill:#353A85;" points="868.458,339.028 833.096,351.778 812.634,346.742 777.273,300.346 789.588,294.983 
							826.727,326.875 860.341,316.803 						"/>
					</g>
				</g>
			</g>
			<g id="XMLID_2323_">
				<g>
					<polygon style="fill:#E0E0E1;" points="892.144,313.126 880.727,329.262 875.36,328.823 866.414,312.458 					"/>
				</g>
			</g>
			<g id="XMLID_2322_">
				<g>
					<polygon style="fill:#E1CFB5;" points="883.098,412.42 883.298,418.627 872.341,422.616 866.027,417.831 866.023,410.605 
						872.119,410.265 872.31,408.676 874.307,407.392 					"/>
				</g>
			</g>
		</g>
		<g>
			<path style="fill:#E1CFB5;" d="M878.658,280.733c-2.388-2.106-5.118-2.488-8.162-2.511c-1.438-0.011-1.919,0.361-2.661,0.231
				c-0.333-0.059-0.719-0.218-1.268-0.56c-1.09-0.678-2.061-2.453-2.571-3.9c-2.823,1.785-4.876,5.01-5.442,9.92
				c-0.615,5.338-0.606,10.969,1.224,16.31c1.83,5.341,5.734,10.363,10.799,12.345c0.295,0.115,0.588,0.217,0.88,0.312
				c2.171,0.708,4.231,0.855,6.143,0.548l6.385-3.043c0.318-0.27,0.626-0.555,0.925-0.853
				C887.007,300.445,884.733,286.089,878.658,280.733z"/>
		</g>
		<g>
			<path style="fill:#292949;" d="M921.725,371.022c-0.69-0.628-1.393-1.257-2.098-1.891c0.464,1.19,0.926,2.397,1.386,3.622
				c0.459,1.224,0.916,2.466,1.369,3.726c0.292,0.812,0.575,1.637,0.849,2.475c-0.274-0.838-0.557-1.663-0.849-2.475
				c-0.453-1.26-0.91-2.502-1.369-3.726c-0.459-1.224-0.922-2.431-1.386-3.622c-5.099-4.582-10.321-9.422-11.721-16.02
				c-0.672-3.169-0.372-6.321,0.302-9.477c1.083-5.071,3.131-10.153,3.665-15.332c0.916-8.871,0.193-21.623-1.973-30.301
				c-2.316-9.279-7.365-17.675-13.421-24.987c-7.347-8.87-21.006-18.801-30.679-7.185c-0.111,0.133-0.219,0.27-0.323,0.41
				c-1.051-0.526-2.152-0.953-3.286-1.264c-6.683,5.629-8.401,14.689-7.701,23.015c0.702,8.342,4.913,17.794,2.536,26.069
				c-0.227,0.791-0.523,1.582-0.517,2.405c0.006,0.823,0.401,1.712,1.168,2.01c0.466,0.181,0.987,0.12,1.482,0.056
				c4.089-0.528,8.54-1.237,11.313-4.288c0.413-0.454,0.731-0.91,0.983-1.365c-0.291-0.095-0.584-0.196-0.879-0.312
				c-5.065-1.982-8.97-7.004-10.799-12.345c-1.829-5.341-1.839-10.972-1.224-16.309c0.566-4.91,2.62-8.134,5.443-9.92
				c0.51,1.447,1.481,3.222,2.571,3.9c0.549,0.342,0.935,0.501,1.268,0.56c0.742,0.131,1.223-0.241,2.661-0.231
				c3.044,0.023,5.773,0.405,8.162,2.511c6.075,5.356,8.348,19.712,6.25,28.798c5.728-5.713,8.024-16.326,4.254-24.258
				c-0.214-0.451-0.442-0.892-0.682-1.323c0.24,0.431,0.468,0.872,0.682,1.323c3.77,7.931,1.474,18.545-4.254,24.258
				c-0.036,0.157-0.074,0.312-0.113,0.466c-0.259,1.027-0.574,1.984-0.951,2.842c-0.154,0.351-0.318,0.686-0.493,1.003
				c-1.866,3.402-4.753,6.596-4.68,10.475c0.013,0.72,0.135,1.424,0.314,2.119c0.326,1.263,0.85,2.491,1.317,3.715
				c4.966,13.007-0.495,27.691-8.571,38.682c-4.137,5.629-9.6,10.51-11.956,17.086c-0.405,1.129-0.658,2.334-0.772,3.562
				c-0.549,5.925,2.242,12.38,7.948,13.345c1.343,0.227,2.77,0.139,4.005,0.713c4.217,1.959,2.394,8.873,5.515,12.319
				c2.016,2.227,5.426,2.305,8.429,2.219c0.982-0.028,2.021-0.073,2.844-0.61c1.754-1.144,1.586-3.693,2.103-5.723
				c0.937-3.677,4.609-6.092,8.315-6.904c3.707-0.813,7.555-0.381,11.35-0.375c4.741,0.007,9.589-0.695,13.77-2.931
				c1.641-0.878,3.165-2.022,4.463-3.367c-0.16-0.979-0.327-1.951-0.502-2.915c0.175,0.964,0.342,1.935,0.502,2.915
				c2.008-2.081,3.471-4.648,3.955-7.487C932.992,383.111,927.405,376.189,921.725,371.022z M878.526,274.36
				c0.784,0.395,1.557,0.844,2.311,1.342C880.082,275.203,879.31,274.755,878.526,274.36z"/>
		</g>
	</g>
</g>
</svg>
